<mxfile host="app.diagrams.net" modified="2023-06-20T03:32:54.820Z" agent="Mozilla/5.0 (Windows NT 10.0; Win64; x64) AppleWebKit/537.36 (KHTML, like Gecko) Chrome/114.0.0.0 Safari/537.36" etag="0lAp37vLtG6VUsm-JkhB" version="21.5.0" type="device">
  <diagram name="Página-1" id="5vuoqh-nR_Afy6hoImK9">
    <mxGraphModel dx="2074" dy="1116" grid="1" gridSize="10" guides="1" tooltips="1" connect="1" arrows="1" fold="1" page="1" pageScale="1" pageWidth="827" pageHeight="1169" math="0" shadow="0">
      <root>
        <mxCell id="0" />
        <mxCell id="1" parent="0" />
        <mxCell id="7l0nYf_ReeoVc2GEaKsW-8" style="edgeStyle=orthogonalEdgeStyle;rounded=0;orthogonalLoop=1;jettySize=auto;html=1;" edge="1" parent="1" source="7l0nYf_ReeoVc2GEaKsW-1" target="7l0nYf_ReeoVc2GEaKsW-5">
          <mxGeometry relative="1" as="geometry" />
        </mxCell>
        <mxCell id="7l0nYf_ReeoVc2GEaKsW-1" value="Datos de entrada" style="rounded=1;whiteSpace=wrap;html=1;" vertex="1" parent="1">
          <mxGeometry x="80" y="360" width="120" height="60" as="geometry" />
        </mxCell>
        <mxCell id="7l0nYf_ReeoVc2GEaKsW-19" style="edgeStyle=orthogonalEdgeStyle;rounded=0;orthogonalLoop=1;jettySize=auto;html=1;entryX=0;entryY=0.5;entryDx=0;entryDy=0;" edge="1" parent="1" source="7l0nYf_ReeoVc2GEaKsW-3" target="7l0nYf_ReeoVc2GEaKsW-16">
          <mxGeometry relative="1" as="geometry" />
        </mxCell>
        <mxCell id="7l0nYf_ReeoVc2GEaKsW-3" value="Base de&amp;nbsp; &lt;br&gt;Calificación" style="rounded=1;whiteSpace=wrap;html=1;" vertex="1" parent="1">
          <mxGeometry x="630" y="360" width="120" height="60" as="geometry" />
        </mxCell>
        <mxCell id="7l0nYf_ReeoVc2GEaKsW-11" style="edgeStyle=orthogonalEdgeStyle;rounded=0;orthogonalLoop=1;jettySize=auto;html=1;" edge="1" parent="1" source="7l0nYf_ReeoVc2GEaKsW-4" target="7l0nYf_ReeoVc2GEaKsW-3">
          <mxGeometry relative="1" as="geometry" />
        </mxCell>
        <mxCell id="7l0nYf_ReeoVc2GEaKsW-4" value="Encoding" style="rounded=1;whiteSpace=wrap;html=1;" vertex="1" parent="1">
          <mxGeometry x="450" y="270" width="120" height="60" as="geometry" />
        </mxCell>
        <mxCell id="7l0nYf_ReeoVc2GEaKsW-9" style="edgeStyle=orthogonalEdgeStyle;rounded=0;orthogonalLoop=1;jettySize=auto;html=1;exitX=0.5;exitY=0;exitDx=0;exitDy=0;entryX=0;entryY=0.5;entryDx=0;entryDy=0;" edge="1" parent="1" source="7l0nYf_ReeoVc2GEaKsW-5" target="7l0nYf_ReeoVc2GEaKsW-4">
          <mxGeometry relative="1" as="geometry" />
        </mxCell>
        <mxCell id="7l0nYf_ReeoVc2GEaKsW-10" style="edgeStyle=orthogonalEdgeStyle;rounded=0;orthogonalLoop=1;jettySize=auto;html=1;exitX=0.5;exitY=1;exitDx=0;exitDy=0;entryX=0;entryY=0.5;entryDx=0;entryDy=0;" edge="1" parent="1" source="7l0nYf_ReeoVc2GEaKsW-5" target="7l0nYf_ReeoVc2GEaKsW-6">
          <mxGeometry relative="1" as="geometry" />
        </mxCell>
        <mxCell id="7l0nYf_ReeoVc2GEaKsW-13" style="edgeStyle=orthogonalEdgeStyle;rounded=0;orthogonalLoop=1;jettySize=auto;html=1;entryX=0;entryY=0.5;entryDx=0;entryDy=0;" edge="1" parent="1" source="7l0nYf_ReeoVc2GEaKsW-5" target="7l0nYf_ReeoVc2GEaKsW-3">
          <mxGeometry relative="1" as="geometry" />
        </mxCell>
        <mxCell id="7l0nYf_ReeoVc2GEaKsW-5" value="Selección de variables" style="rounded=1;whiteSpace=wrap;html=1;" vertex="1" parent="1">
          <mxGeometry x="270" y="360" width="120" height="60" as="geometry" />
        </mxCell>
        <mxCell id="7l0nYf_ReeoVc2GEaKsW-12" style="edgeStyle=orthogonalEdgeStyle;rounded=0;orthogonalLoop=1;jettySize=auto;html=1;entryX=0.5;entryY=1;entryDx=0;entryDy=0;" edge="1" parent="1" source="7l0nYf_ReeoVc2GEaKsW-6" target="7l0nYf_ReeoVc2GEaKsW-3">
          <mxGeometry relative="1" as="geometry" />
        </mxCell>
        <mxCell id="7l0nYf_ReeoVc2GEaKsW-6" value="Ejecución &lt;br&gt;Kmeans" style="rounded=1;whiteSpace=wrap;html=1;" vertex="1" parent="1">
          <mxGeometry x="460" y="460" width="120" height="60" as="geometry" />
        </mxCell>
        <mxCell id="7l0nYf_ReeoVc2GEaKsW-20" style="edgeStyle=orthogonalEdgeStyle;rounded=0;orthogonalLoop=1;jettySize=auto;html=1;" edge="1" parent="1" source="7l0nYf_ReeoVc2GEaKsW-16" target="7l0nYf_ReeoVc2GEaKsW-17">
          <mxGeometry relative="1" as="geometry" />
        </mxCell>
        <mxCell id="7l0nYf_ReeoVc2GEaKsW-16" value="Filtro de&lt;br&gt;Implementación" style="rounded=1;whiteSpace=wrap;html=1;" vertex="1" parent="1">
          <mxGeometry x="810" y="360" width="120" height="60" as="geometry" />
        </mxCell>
        <mxCell id="7l0nYf_ReeoVc2GEaKsW-22" style="edgeStyle=orthogonalEdgeStyle;rounded=0;orthogonalLoop=1;jettySize=auto;html=1;entryX=0;entryY=0.5;entryDx=0;entryDy=0;" edge="1" parent="1" source="7l0nYf_ReeoVc2GEaKsW-17" target="7l0nYf_ReeoVc2GEaKsW-21">
          <mxGeometry relative="1" as="geometry" />
        </mxCell>
        <mxCell id="7l0nYf_ReeoVc2GEaKsW-17" value="XGBOOST" style="rounded=1;whiteSpace=wrap;html=1;" vertex="1" parent="1">
          <mxGeometry x="990" y="360" width="120" height="60" as="geometry" />
        </mxCell>
        <mxCell id="7l0nYf_ReeoVc2GEaKsW-21" value="Predicción" style="rounded=1;whiteSpace=wrap;html=1;" vertex="1" parent="1">
          <mxGeometry x="1160" y="360" width="120" height="60" as="geometry" />
        </mxCell>
      </root>
    </mxGraphModel>
  </diagram>
</mxfile>
